<svg xmlns="http://www.w3.org/2000/svg" width="512" height="512" viewBox="0 0 500.043 500.043"><path d="M491.445 206.857c-4.752 0-8.605 4.857-8.605 10.834v64.672c0 5.977 3.854 10.824 8.615 10.824 4.752 0 8.588-4.848 8.588-10.824v-64.682c0-5.967-3.846-10.824-8.598-10.824zm-482.829 0c-4.752 0-8.616 4.857-8.616 10.834 0 16.601 0 48.071.01 64.653 0 5.977 3.854 10.824 8.606 10.844 4.753 0 8.597-4.848 8.597-10.824 0-16.572 0-48.081.01-64.682-.001-5.968-3.854-10.825-8.607-10.825zm105.952-98.045c-15.854 0-28.716 14.544-28.716 32.474 0 54.354.01 163.137.02 217.471 0 17.93 12.842 32.473 28.697 32.473s28.716-14.553 28.716-32.473v-82.545h208.874v82.555c0 17.92 12.861 32.463 28.717 32.463 15.854 0 28.697-14.553 28.697-32.473V141.286c0-17.939-12.844-32.474-28.697-32.474-15.855 0-28.717 14.525-28.717 32.474v82.543H143.285v-82.553c0-17.938-12.852-32.464-28.717-32.464zm333.034 43.376h-2.811c-11.945 0-21.641 9.668-21.641 21.63v152.406c0 11.953 9.695 21.65 21.648 21.65h2.812c11.953 0 21.648-9.668 21.648-21.631 0-37.637 0-114.759-.008-152.407.01-11.961-9.695-21.648-21.648-21.648zm-395.486 0h-2.821c-11.953 0-21.64 9.668-21.64 21.63v152.406c0 11.963 9.687 21.65 21.64 21.65h2.811c11.953 0 21.64-9.668 21.64-21.631V173.836c.01-11.961-9.677-21.648-21.63-21.648z" fill="#FFF"/></svg>