<svg xmlns="http://www.w3.org/2000/svg" width="512" height="512" viewBox="0 0 409.403 409.403"><g fill="#FFF"><path d="M301.939 190.993c6.172-10.501 26.365-23.006 26.365-23.006s1.903-.635-14.219-6.324c-6.239-2.202-13.112.084-19.203 3.695-8.74-13.018-39.101-64.514 1.579-98.821 25.358-21.379 44.702-25.039 58.82-27.706 13.148-2.484 23.544-4.446 26.886-20.614a3.912 3.912 0 0 0-3.05-4.639c-2.147-.483-4.199.912-4.645 3.043-2.268 11.017-7.649 12.036-20.654 14.505-14.122 2.667-35.485 6.708-62.419 29.423-45.601 38.431-12.56 94.926-2.974 109.262-5.29 4.156-9.277 8.486-10.487 9.858-15.762-8.333-35.206-18.246-47.136-23.221-22.752-9.476-51.666-15.807-86.732 22.103C109.002 216.471 0 339.691 0 339.691l72.506 38.23 183.889-175.674c.001.001 25.591-20.521 45.544-11.254zm-106.212 49.811l-68.559-31.595s35.392-40.126 46.127-47.071l66.986 32.222c0-.001-36.972 36.008-44.554 46.444z"/><path d="M403.512 12.06c-15.553 9.001-16.618 26.074-18.935 63.478-.806 12.988-1.815 29.156-3.619 48.482-4.231 45.286-23.535 60.827-36.72 66.193-1.274-12.788-8.011-22.47-14.968-18.468-14.379 8.279-22.935 18.997-25.973 23.237a26.895 26.895 0 0 0-7.682-2.132c-19.071-2.384-35.55 10.971-36.921 12.061L74.971 380.431l28.621 17.44s69.854-64.015 112.569-52.546a41.799 41.799 0 0 0 6.748 4.023c30.32 14.339 71.765-9.718 92.563-53.716 7.458-15.809 11.209-32.007 11.594-46.975.597-6.82.272-13.405-.838-19.516 1.831-1.72 4.316-4.124 7.698-7.507 6.568-6.576 9.605-15.063 10.327-23.221 15.377-5.336 39.71-21.949 44.526-73.65 1.815-19.466 2.821-35.688 3.631-48.729 2.208-35.556 3.122-50.269 15.028-57.168a3.922 3.922 0 0 0 1.435-5.366c-1.098-1.877-3.498-2.528-5.361-1.44zm-71.953 194.756c-3.619 0-6.548-4.4-6.548-9.812 0-5.42 2.929-9.812 6.548-9.812 2.473 0 4.553 2.138 5.671 5.197-3.126.651-5.274.697-5.611.689-2.315-.276-3.938 1.679-3.987 3.841a3.929 3.929 0 0 0 3.835 4.009h.045c.368 0 2.696-.07 6.155-.759-.883 3.851-3.243 6.647-6.108 6.647z"/></g></svg>