<?xml version="1.0" encoding="iso-8859-1"?>
<!-- Generator: Adobe Illustrator 16.0.0, SVG Export Plug-In . SVG Version: 6.00 Build 0)  -->
<!DOCTYPE svg PUBLIC "-//W3C//DTD SVG 1.1//EN" "http://www.w3.org/Graphics/SVG/1.1/DTD/svg11.dtd">
<svg xmlns="http://www.w3.org/2000/svg" xmlns:xlink="http://www.w3.org/1999/xlink" version="1.1" id="Capa_1" x="0px" y="0px" width="512px" height="512px" viewBox="0 0 304.738 304.738" style="enable-background:new 0 0 304.738 304.738;" xml:space="preserve">
<g>
	<g>
		<path d="M248.44,109.961c-0.536,0.049-1.046,0.252-1.471,0.583L103.928,221.843c-9.768,7.594-19.001,13.788-20.621,13.831    c-0.969,0.022-1.952,0.045-2.941,0.065c-4.214,0.099-8.619,0.2-13.237,0.285c-17.511,0.29-31.493-4.377-41.272-13.976    c-10.809-10.604-14.66-25.312-14.66-35.634c-0.027-1.477-0.235-36.134,42.95-39.942c27.245-2.372,35.067,9.77,35.336,10.203    c0.251,0.443,0.56,0.85,0.913,1.204c7.279,7.283,11.283,16.945,11.283,27.232c0,10.294-4.004,19.963-11.283,27.24    c-5.603,5.603-13.055,8.691-20.99,8.691c-7.928,0-15.387-3.089-20.997-8.702c-8.823-8.82-8.823-23.185,0-32.012    c3.212-3.206,7.47-4.974,12.009-4.974c4.545,0,8.801,1.768,12.014,4.984c1.221,1.216,2.157,2.649,2.781,4.205    c-0.584-1.059-1.331-2.049-2.209-2.928c-5.79-5.797-15.215-5.79-21.011-0.008c-3.245,3.24-5.026,7.558-5.026,12.144    c0,4.58,1.786,8.897,5.026,12.131c3.787,3.797,8.822,5.888,14.185,5.888c5.362,0,10.394-2.084,14.189-5.875    c4.47-4.478,6.929-10.415,6.929-16.74s-2.459-12.273-6.929-16.738c-5.325-5.32-12.399-8.264-19.938-8.264    c-7.536,0-14.612,2.934-19.938,8.264c-13.19,13.187-13.19,34.659,0,47.856c7.721,7.728,17.993,11.974,28.919,11.974    c10.928,0,21.199-4.246,28.919-11.974c9.396-9.39,14.57-21.876,14.57-35.156c0-13.082-5.021-25.396-14.157-34.737    c-2.47-3.603-14.32-17.83-45.571-15.067C-0.317,140.032-0.009,186.186,0,186.536c0,12.487,4.732,30.479,18.011,43.524    c12.014,11.786,28.706,17.608,49.33,17.182c4.636-0.088,9.062-0.186,13.292-0.284c41.56-0.963,62.41-1.434,82.828,16.618    c1.06,0.941,2.392,1.406,3.703,1.406c1.554,0,3.097-0.641,4.197-1.893c0.284-0.317,0.415-0.695,0.612-1.051    c0.396-0.121,0.766-0.289,1.089-0.574l130.748-117.671c1.056-0.955,1.232-2.539,0.412-3.699    C303.303,138.79,280.527,107.047,248.44,109.961z M59.908,197.967c-1.127-1.127-1.749-2.621-1.749-4.213    c0-1.593,0.621-3.092,1.749-4.22c0.711-0.711,1.648-1.066,2.577-1.066c0.936,0,1.872,0.355,2.588,1.066    c0.454,0.46,0.52,0.99,0.52,1.27c0,0.274-0.066,0.811-0.524,1.27c-2.192,2.189-2.198,5.729-0.007,7.924    c0.208,0.208,0.42,0.383,0.644,0.559C63.517,200.435,61.47,199.526,59.908,197.967z" fill="#FFFFFF"/>
		<path d="M247.642,102.038c0.464-0.359,0.81-0.862,0.973-1.428c0.27-0.914,6.307-22.685-17.674-43.237    c-18.561-15.902-36.984-17.617-44.038-17.617c-2.194,0-3.432,0.159-3.432,0.159c-0.436,0.055-0.864,0.218-1.23,0.465    L51.177,130.06c34.011-2.974,49.361,12.32,52.768,16.339c10.197,10.403,15.8,24.125,15.8,38.713    c0,6.425-1.155,12.668-3.245,18.551L247.642,102.038z" fill="#FFFFFF"/>
	</g>
</g>
<g>
</g>
<g>
</g>
<g>
</g>
<g>
</g>
<g>
</g>
<g>
</g>
<g>
</g>
<g>
</g>
<g>
</g>
<g>
</g>
<g>
</g>
<g>
</g>
<g>
</g>
<g>
</g>
<g>
</g>
</svg>
