<?xml version="1.0" encoding="iso-8859-1"?>
<!-- Generator: Adobe Illustrator 19.0.0, SVG Export Plug-In . SVG Version: 6.00 Build 0)  -->
<svg xmlns="http://www.w3.org/2000/svg" xmlns:xlink="http://www.w3.org/1999/xlink" version="1.1" id="Layer_1" x="0px" y="0px" viewBox="0 0 512.02 512.02" style="enable-background:new 0 0 512.02 512.02;" xml:space="preserve" width="512px" height="512px">
<g>
	<g>
		<path d="M499.01,289.316c5.792-8.876,13-19.92,13-33.296c0-13.392-7.208-24.436-13-33.32c-3.248-4.96-6.608-10.1-7.284-13.564    c-0.748-3.788,0.416-10.016,1.544-16.04c2.016-10.796,4.312-23.04-0.676-35.08c-5.072-12.228-15.456-19.32-24.616-25.572    c-4.964-3.392-10.104-6.908-12.14-9.944c-2.088-3.116-3.384-9.264-4.648-15.212c-2.276-10.788-4.864-23.016-14.14-32.304    c-9.28-9.28-21.52-11.868-32.308-14.148c-5.94-1.256-12.084-2.556-15.2-4.632c-3.044-2.048-6.548-7.188-9.936-12.148    c-6.252-9.164-13.344-19.548-25.58-24.616c-4.856-2.016-10.128-3-16.128-3c-6.6,0-12.88,1.18-18.948,2.312    c-4.888,0.916-9.504,1.772-13.2,1.772c-1.096,0-2.052-0.08-2.836-0.228c-3.464-0.696-8.604-4.048-13.58-7.288    C280.458,7.22,269.414,0,256.026,0s-24.432,7.22-33.308,13.008c-4.972,3.244-10.112,6.592-13.572,7.288    c-0.784,0.148-1.748,0.228-2.844,0.228c-3.696,0-8.312-0.86-13.2-1.772c-6.08-1.132-12.348-2.312-18.948-2.312    c-6,0-11.28,0.992-16.12,3c-12.236,5.072-19.324,15.452-25.584,24.608c-3.396,4.968-6.908,10.108-9.94,12.148    c-3.112,2.084-9.256,3.384-15.2,4.64c-10.796,2.28-23.028,4.868-32.308,14.148c-9.276,9.28-11.872,21.516-14.148,32.304    c-1.256,5.944-2.56,12.084-4.648,15.204c-2.036,3.04-7.168,6.556-12.14,9.944c-9.164,6.256-19.552,13.356-24.616,25.576    c-4.996,12.04-2.708,24.28-0.692,35.08c1.128,6.032,2.288,12.256,1.544,16.04c-0.684,3.468-4.036,8.608-7.284,13.58    C7.226,231.584,0.01,242.628,0.01,256.02c0,13.376,7.216,24.42,13.008,33.296c3.248,4.976,6.6,10.116,7.284,13.584    c0.752,3.78-0.416,10.016-1.536,16.04c-2.016,10.804-4.304,23.04,0.684,35.072c5.072,12.236,15.456,19.32,24.616,25.58    c4.964,3.392,10.104,6.9,12.14,9.944c2.088,3.116,3.384,9.256,4.648,15.196c2.276,10.796,4.864,23.032,14.14,32.312    c9.28,9.272,21.52,11.868,32.316,14.148c5.94,1.256,12.08,2.548,15.184,4.632c3.052,2.04,6.556,7.18,9.956,12.156    c6.248,9.156,13.332,19.54,25.56,24.616c4.856,2.008,10.136,2.984,16.128,2.984c6.6,0,12.88-1.172,18.948-2.304    c4.896-0.916,9.512-1.78,13.208-1.78c1.096,0,2.06,0.08,2.844,0.244c3.456,0.68,8.596,4.032,13.572,7.28    c8.876,5.796,19.92,13,33.308,13s24.432-7.204,33.308-13c4.972-3.248,10.112-6.6,13.58-7.28c0.784-0.164,1.74-0.244,2.836-0.244    c3.696,0,8.312,0.868,13.2,1.78c6.072,1.14,12.348,2.304,18.948,2.304c6,0,11.272-0.976,16.128-2.984    c12.228-5.08,19.316-15.452,25.568-24.616c3.396-4.976,6.908-10.124,9.94-12.156c3.112-2.084,9.256-3.376,15.192-4.632    c10.796-2.28,23.044-4.876,32.324-14.156c9.268-9.28,11.864-21.508,14.132-32.312c1.264-5.928,2.56-12.084,4.648-15.196    c2.036-3.048,7.176-6.556,12.148-9.952c9.152-6.248,19.54-13.336,24.608-25.556c4.988-12.04,2.7-24.28,0.684-35.08    c-1.128-6.024-2.288-12.256-1.544-16.048C492.402,299.432,495.762,294.292,499.01,289.316z M118.15,180.652    c0-34.592,28.152-62.744,62.752-62.744c34.592,0,62.748,28.148,62.748,62.744c0,34.6-28.152,62.756-62.748,62.756    C146.302,243.412,118.15,215.256,118.15,180.652z M161.826,373.552c-3.168,3.172-7.34,4.764-11.504,4.764    s-8.328-1.592-11.504-4.764c-6.356-6.352-6.356-16.656,0-23.016l212.04-212.04c6.352-6.36,16.656-6.36,23.012,0    c6.356,6.352,6.356,16.656,0,23.008L161.826,373.552z M331.446,393.932c-34.6,0-62.752-28.148-62.752-62.744    c0-34.6,28.152-62.756,62.752-62.756c34.592,0,62.748,28.156,62.748,62.756C394.194,365.784,366.042,393.932,331.446,393.932z" fill="#FFFFFF"/>
	</g>
</g>
<g>
	<g>
		<path d="M331.446,301.076c-16.652,0-30.208,13.556-30.208,30.212s13.556,30.204,30.208,30.204    c16.656,0,30.204-13.548,30.204-30.204S348.102,301.076,331.446,301.076z" fill="#FFFFFF"/>
	</g>
</g>
<g>
	<g>
		<path d="M180.906,150.548c-16.652,0-30.208,13.548-30.208,30.196c0,16.66,13.556,30.212,30.208,30.212    c16.652,0,30.204-13.556,30.204-30.212C211.11,164.096,197.558,150.548,180.906,150.548z" fill="#FFFFFF"/>
	</g>
</g>
<g>
</g>
<g>
</g>
<g>
</g>
<g>
</g>
<g>
</g>
<g>
</g>
<g>
</g>
<g>
</g>
<g>
</g>
<g>
</g>
<g>
</g>
<g>
</g>
<g>
</g>
<g>
</g>
<g>
</g>
</svg>
