<svg xmlns="http://www.w3.org/2000/svg" width="438.533" height="438.533" viewBox="0 0 438.533 438.533"><path d="M409.133 109.203c-19.608-33.592-46.205-60.189-79.798-79.796C295.736 9.801 259.058 0 219.273 0c-39.781 0-76.466 9.801-110.063 29.407-33.595 19.604-60.192 46.201-79.8 79.796C9.801 142.8 0 179.489 0 219.267s9.804 76.463 29.407 110.062c19.607 33.585 46.204 60.189 79.799 79.798 33.597 19.605 70.283 29.407 110.063 29.407s76.47-9.802 110.065-29.407c33.593-19.602 60.189-46.206 79.795-79.798 19.603-33.599 29.403-70.287 29.403-110.062.001-39.778-9.8-76.472-29.399-110.064zm-80.229 125.763L173.588 326.33c-2.856 1.711-5.902 2.567-9.136 2.567-3.045 0-6.09-.764-9.135-2.286-6.09-3.614-9.136-8.939-9.136-15.985V127.907c0-7.041 3.046-12.371 9.136-15.987 6.28-3.427 12.369-3.333 18.271.284l155.316 91.36c6.088 3.424 9.134 8.663 9.134 15.703 0 7.041-3.046 12.27-9.134 15.699z"/></svg>