<svg xmlns="http://www.w3.org/2000/svg" width="512" height="512" viewBox="0 0 304.738 304.738"><g fill="#FFF"><path d="M248.44 109.961a2.81 2.81 0 0 0-1.471.583L103.928 221.843c-9.768 7.594-19.001 13.788-20.621 13.831-.969.022-1.952.045-2.941.065-4.214.099-8.619.2-13.237.285-17.511.29-31.493-4.377-41.272-13.976-10.809-10.604-14.66-25.312-14.66-35.634-.027-1.477-.235-36.134 42.95-39.942 27.245-2.372 35.067 9.77 35.336 10.203.251.443.56.85.913 1.204 7.279 7.283 11.283 16.945 11.283 27.232 0 10.294-4.004 19.963-11.283 27.24-5.603 5.603-13.055 8.691-20.99 8.691-7.928 0-15.387-3.089-20.997-8.702-8.823-8.82-8.823-23.185 0-32.012a16.882 16.882 0 0 1 12.009-4.974c4.545 0 8.801 1.768 12.014 4.984a12.487 12.487 0 0 1 2.781 4.205 13.133 13.133 0 0 0-2.209-2.928c-5.79-5.797-15.215-5.79-21.011-.008-3.245 3.24-5.026 7.558-5.026 12.144a17.04 17.04 0 0 0 5.026 12.131 19.897 19.897 0 0 0 14.185 5.888 19.934 19.934 0 0 0 14.189-5.875c4.47-4.478 6.929-10.415 6.929-16.74s-2.459-12.273-6.929-16.738c-5.325-5.32-12.399-8.264-19.938-8.264-7.536 0-14.612 2.934-19.938 8.264-13.19 13.187-13.19 34.659 0 47.856 7.721 7.728 17.993 11.974 28.919 11.974 10.928 0 21.199-4.246 28.919-11.974 9.396-9.39 14.57-21.876 14.57-35.156 0-13.082-5.021-25.396-14.157-34.737-2.47-3.603-14.32-17.83-45.571-15.067C-.317 140.032-.009 186.186 0 186.536c0 12.487 4.732 30.479 18.011 43.524 12.014 11.786 28.706 17.608 49.33 17.182 4.636-.088 9.062-.186 13.292-.284 41.56-.963 62.41-1.434 82.828 16.618a5.578 5.578 0 0 0 3.703 1.406 5.569 5.569 0 0 0 4.197-1.893c.284-.317.415-.695.612-1.051.396-.121.766-.289 1.089-.574L303.81 143.793a2.8 2.8 0 0 0 .412-3.699c-.919-1.304-23.695-33.047-55.782-30.133zM59.908 197.967a5.918 5.918 0 0 1-1.749-4.213 5.93 5.93 0 0 1 1.749-4.22 3.661 3.661 0 0 1 5.165 0c.454.46.52.99.52 1.27 0 .274-.066.811-.524 1.27a5.597 5.597 0 0 0-.007 7.924c.208.208.42.383.644.559a8.868 8.868 0 0 1-5.798-2.59z"/><path d="M247.642 102.038c.464-.359.81-.862.973-1.428.27-.914 6.307-22.685-17.674-43.237-18.561-15.902-36.984-17.617-44.038-17.617-2.194 0-3.432.159-3.432.159a2.859 2.859 0 0 0-1.23.465L51.177 130.06c34.011-2.974 49.361 12.32 52.768 16.339 10.197 10.403 15.8 24.125 15.8 38.713 0 6.425-1.155 12.668-3.245 18.551l131.142-101.625z"/></g></svg>