<svg xmlns="http://www.w3.org/2000/svg" viewBox="0 0 512.02 512.02" width="512" height="512"><path d="M499.01 289.316c5.792-8.876 13-19.92 13-33.296 0-13.392-7.208-24.436-13-33.32-3.248-4.96-6.608-10.1-7.284-13.564-.748-3.788.416-10.016 1.544-16.04 2.016-10.796 4.312-23.04-.676-35.08-5.072-12.228-15.456-19.32-24.616-25.572-4.964-3.392-10.104-6.908-12.14-9.944-2.088-3.116-3.384-9.264-4.648-15.212-2.276-10.788-4.864-23.016-14.14-32.304-9.28-9.28-21.52-11.868-32.308-14.148-5.94-1.256-12.084-2.556-15.2-4.632-3.044-2.048-6.548-7.188-9.936-12.148-6.252-9.164-13.344-19.548-25.58-24.616-4.856-2.016-10.128-3-16.128-3-6.6 0-12.88 1.18-18.948 2.312-4.888.916-9.504 1.772-13.2 1.772-1.096 0-2.052-.08-2.836-.228-3.464-.696-8.604-4.048-13.58-7.288C280.458 7.22 269.414 0 256.026 0s-24.432 7.22-33.308 13.008c-4.972 3.244-10.112 6.592-13.572 7.288-.784.148-1.748.228-2.844.228-3.696 0-8.312-.86-13.2-1.772-6.08-1.132-12.348-2.312-18.948-2.312-6 0-11.28.992-16.12 3-12.236 5.072-19.324 15.452-25.584 24.608-3.396 4.968-6.908 10.108-9.94 12.148-3.112 2.084-9.256 3.384-15.2 4.64-10.796 2.28-23.028 4.868-32.308 14.148-9.276 9.28-11.872 21.516-14.148 32.304-1.256 5.944-2.56 12.084-4.648 15.204-2.036 3.04-7.168 6.556-12.14 9.944-9.164 6.256-19.552 13.356-24.616 25.576-4.996 12.04-2.708 24.28-.692 35.08 1.128 6.032 2.288 12.256 1.544 16.04-.684 3.468-4.036 8.608-7.284 13.58C7.226 231.584.01 242.628.01 256.02c0 13.376 7.216 24.42 13.008 33.296 3.248 4.976 6.6 10.116 7.284 13.584.752 3.78-.416 10.016-1.536 16.04-2.016 10.804-4.304 23.04.684 35.072 5.072 12.236 15.456 19.32 24.616 25.58 4.964 3.392 10.104 6.9 12.14 9.944 2.088 3.116 3.384 9.256 4.648 15.196 2.276 10.796 4.864 23.032 14.14 32.312 9.28 9.272 21.52 11.868 32.316 14.148 5.94 1.256 12.08 2.548 15.184 4.632 3.052 2.04 6.556 7.18 9.956 12.156 6.248 9.156 13.332 19.54 25.56 24.616 4.856 2.008 10.136 2.984 16.128 2.984 6.6 0 12.88-1.172 18.948-2.304 4.896-.916 9.512-1.78 13.208-1.78 1.096 0 2.06.08 2.844.244 3.456.68 8.596 4.032 13.572 7.28 8.876 5.796 19.92 13 33.308 13s24.432-7.204 33.308-13c4.972-3.248 10.112-6.6 13.58-7.28.784-.164 1.74-.244 2.836-.244 3.696 0 8.312.868 13.2 1.78 6.072 1.14 12.348 2.304 18.948 2.304 6 0 11.272-.976 16.128-2.984 12.228-5.08 19.316-15.452 25.568-24.616 3.396-4.976 6.908-10.124 9.94-12.156 3.112-2.084 9.256-3.376 15.192-4.632 10.796-2.28 23.044-4.876 32.324-14.156 9.268-9.28 11.864-21.508 14.132-32.312 1.264-5.928 2.56-12.084 4.648-15.196 2.036-3.048 7.176-6.556 12.148-9.952 9.152-6.248 19.54-13.336 24.608-25.556 4.988-12.04 2.7-24.28.684-35.08-1.128-6.024-2.288-12.256-1.544-16.048.684-3.46 4.044-8.6 7.292-13.576zM118.15 180.652c0-34.592 28.152-62.744 62.752-62.744 34.592 0 62.748 28.148 62.748 62.744 0 34.6-28.152 62.756-62.748 62.756-34.6.004-62.752-28.152-62.752-62.756zm43.676 192.9c-3.168 3.172-7.34 4.764-11.504 4.764s-8.328-1.592-11.504-4.764c-6.356-6.352-6.356-16.656 0-23.016l212.04-212.04c6.352-6.36 16.656-6.36 23.012 0 6.356 6.352 6.356 16.656 0 23.008L161.826 373.552zm169.62 20.38c-34.6 0-62.752-28.148-62.752-62.744 0-34.6 28.152-62.756 62.752-62.756 34.592 0 62.748 28.156 62.748 62.756 0 34.596-28.152 62.744-62.748 62.744z" fill="#FFF"/><path d="M331.446 301.076c-16.652 0-30.208 13.556-30.208 30.212s13.556 30.204 30.208 30.204c16.656 0 30.204-13.548 30.204-30.204s-13.548-30.212-30.204-30.212zm-150.54-150.528c-16.652 0-30.208 13.548-30.208 30.196 0 16.66 13.556 30.212 30.208 30.212s30.204-13.556 30.204-30.212c0-16.648-13.552-30.196-30.204-30.196z" fill="#FFF"/></svg>